# xmcd
#
# Track frame offsets:
# 150
# 15666
# 32569
# 47495
# 64634
# 78542
# 94655
# 110059
# 126802
# 141851
# 158700
# 175222
# 189038
#
# Disc length: 2761 seconds
#
#
# Revision: 4
# Processed by: cddbd v1.5.2PL0 Copyright (c) Steve Scherf et al.
# Submitted via: FreeRIP 2.35 
#
DISCID=9f0ac70d
DTITLE=мийос йоуяйоукгс  фоуле лецакес стицлес - фоуле лецакес стицлес (2006)
DYEAR=2006
DGENRE=Vocal
TTITLE0=DEN MPORO (ENA-ENA)
TTITLE1=г лпакамта тгс ацапглемгс
TTITLE2=мийотимг
TTITLE3=ти ха йамы
TTITLE4=ти акко хекеис
TTITLE5=паяапомо
TTITLE6=кеме тоса (мтоуето ле йекейидоу)
TTITLE7=вакаки
TTITLE8=ока циа лема
TTITLE9=о,ти аисхамолаи
TTITLE10=тяеко йакойаияи
TTITLE11=ма лпояоуса
TTITLE12=фоуле лецакес стицлес
EXTD=паяацыцг NICEDAY.GR\nCOMPILED BY DIAMANTIS KYRIAKAKIS
EXTT0=
EXTT1=
EXTT2=
EXTT3=
EXTT4=
EXTT5=
EXTT6=
EXTT7=
EXTT8=
EXTT9=
EXTT10=
EXTT11=
EXTT12=
PLAYORDER=
